<svg width="90" height="18" viewBox="0 0 90 18" fill="none" xmlns="http://www.w3.org/2000/svg">
<path d="M14.4102 0.9375V18H10.8945L4.03906 6.5625V18H0.523438V0.9375H4.03906L10.9062 12.3867V0.9375H14.4102ZM24.6172 3.85547L19.9766 18H16.2383L22.5781 0.9375H24.957L24.6172 3.85547ZM28.4727 18L23.8203 3.85547L23.4453 0.9375H25.8477L32.2227 18H28.4727ZM28.2617 11.6484V14.4023H19.25V11.6484H28.2617ZM38.9961 14.4375L43.0156 0.9375H46.9297L40.9883 18H38.4102L38.9961 14.4375ZM35.293 0.9375L39.3008 14.4375L39.9102 18H37.3086L31.4023 0.9375H35.293ZM59.9727 15.2578V18H50.8906V15.2578H59.9727ZM52.0391 0.9375V18H48.5234V0.9375H52.0391ZM58.7891 7.88672V10.5586H50.8906V7.88672H58.7891ZM59.9609 0.9375V3.69141H50.8906V0.9375H59.9609ZM73.4727 15.2578V18H64.3906V15.2578H73.4727ZM65.5391 0.9375V18H62.0234V0.9375H65.5391ZM72.2891 7.88672V10.5586H64.3906V7.88672H72.2891ZM73.4609 0.9375V3.69141H64.3906V0.9375H73.4609ZM89.4102 0.9375V18H85.8945L79.0391 6.5625V18H75.5234V0.9375H79.0391L85.9062 12.3867V0.9375H89.4102Z" fill="black"/>
</svg>
